:SAMPLES-PER-SECOND 30
:FULLY-SPECIFIED
:DEGREES
342
root  -23.1478 14.8561 -13.868 -157.538 -0.741165 -179.029
RightUpLeg  -103.318 -9.90148 5.46932
RightLeg  128.325 3.44089 -4.61736
RightFoot  -35.9175 1.30177 4.59631
RightToes  -15.458 -0.0560022 -0.139338
Spine  15.8555 2.82641 2.45959
Spine1  25.8107 5.97625 3.94076
HEad  -92.7555 0.706026 14.301
LeftShoulder1  -1.94126e-019 -3.10601e-018 -2.51263e-017
LeftArm  32.7082 -67.0545 -107.304
LeftForeArm  32.35 -15.7112 -2.22244
LeftHand  -0.447691 -2.66545 6.6738
RightShoulder  -4.96962e-017 0 -2.36833e-017
RightArm  -2.01384 63.5075 82.9374
RightForeArm  75.7766 3.37887 0.513316
RightHand  -0.297199 -1.96236 -9.85289
LeftUpLeg  -103.745 11.3742 -2.38494
LeftLeg  129.357 -4.26654 5.92785
LeftFoot  -36.2762 -1.57807 -4.65321
LeftToes  -8.70889 2.03064e-006 1.83538e-008
343
root  -23.1434 16.2038 -13.7724 -156.298 -0.709793 -179.197
RightUpLeg  -101.172 -10.2354 5.79654
RightLeg  123.455 2.80576 -4.51286
RightFoot  -34.6018 1.11209 4.14783
RightToes  -15.781 -0.058695 -0.142065
Spine  15.1146 2.84085 2.466
Spine1  24.6905 6.10936 3.91408
HEad  -92.8537 1.15774 13.8036
LeftShoulder1  -1.94126e-019 -3.10601e-018 -2.51263e-017
LeftArm  29.4153 -66.7013 -103.369
LeftForeArm  31.5984 -16.6344 -2.25884
LeftHand  -0.483138 -2.44629 7.36992
RightShoulder  -4.96962e-017 0 -2.36833e-017
RightArm  -4.11234 62.3458 79.7457
RightForeArm  75.7273 4.06172 0.632251
RightHand  -0.351452 -1.71685 -10.9504
LeftUpLeg  -101.538 11.4604 -2.95521
LeftLeg  124.466 -3.60958 6.04635
LeftFoot  -34.8826 -1.39468 -4.27568
LeftToes  -9.13573 2.03064e-006 1.83538e-008
344
root  -23.1407 17.551 -13.7379 -155.516 -0.738434 -179.409
RightUpLeg  -98.4904 -10.7191 5.9815
RightLeg  118.536 2.17492 -4.26174
RightFoot  -33.3085 0.931091 3.68714
RightToes  -16.0407 -0.06119 -0.145522
Spine  14.4927 2.79604 2.40332
Spine1  23.7098 6.13833 3.74652
HEad  -92.6726 1.69384 13.4808
LeftShoulder1  -1.94126e-019 -3.10601e-018 -2.51263e-017
LeftArm  25.8905 -65.7159 -99.5209
LeftForeArm  30.9989 -17.0148 -2.2894
LeftHand  -0.504152 -2.16219 7.94937
RightShoulder  -4.96962e-017 0 -2.36833e-017
RightArm  -4.84913 60.7927 76.6433
RightForeArm  74.4741 5.22445 0.83966
RightHand  -0.366758 -1.57643 -11.0309
LeftUpLeg  -98.7844 11.4276 -3.38442
LeftLeg  119.497 -2.98964 6.17065
LeftFoot  -33.4607 -1.24116 -3.9659
LeftToes  -9.38131 2.03064e-006 1.83538e-008
345
root  -23.102 18.9309 -13.714 -154.682 -0.758408 -179.492
RightUpLeg  -95.7854 -11.0429 6.33874
RightLeg  113.308 1.62266 -4.04611
RightFoot  -31.7598 0.768161 3.27237
RightToes  -16.5378 -0.0630109 -0.148419
Spine  13.7035 2.79291 2.30059
Spine1  22.5094 6.26603 3.54035
HEad  -92.7339 2.12096 13.2702
LeftShoulder1  -1.94126e-019 -3.10601e-018 -2.51263e-017
LeftArm  22.9709 -64.2133 -96.1206
LeftForeArm  31.4137 -16.8017 -2.2691
LeftHand  -0.473611 -1.93657 7.69346
RightShoulder  -4.96962e-017 0 -2.36833e-017
RightArm  -6.27224 59.1442 74.004
RightForeArm  73.5528 5.87057 0.955173
RightHand  -0.397954 -1.3179 -11.2506
LeftUpLeg  -96.1117 11.5723 -3.67382
LeftLeg  114.294 -2.31871 6.16154
LeftFoot  -31.601 -1.05746 -3.57411
LeftToes  -10.4742 2.03064e-006 1.83538e-008
346
root  -23.0558 20.2871 -13.7703 -154.469 -0.803513 -179.602
RightUpLeg  -92.3604 -11.3867 6.4722
RightLeg  108.081 1.15173 -3.8558
RightFoot  -30.3029 0.643103 2.94514
RightToes  -16.5957 -0.0633052 -0.148903
Spine  13.0906 2.75322 2.14537
Spine1  21.5353 6.31699 3.21905
HEad  -92.3815 2.30447 12.8956
LeftShoulder1  -1.94126e-019 -3.10601e-018 -2.51263e-017
LeftArm  20.4035 -61.8697 -92.6184
LeftForeArm  32.3068 -16.6984 -2.23767
LeftHand  -0.508828 -2.0695 8.11411
RightShoulder  -4.96962e-017 0 -2.36833e-017
RightArm  -7.04678 56.8407 71.9516
RightForeArm  71.4493 6.83708 1.1316
RightHand  -0.373667 -1.55545 -11.1831
LeftUpLeg  -92.7116 11.8368 -3.84833
LeftLeg  109.069 -1.64055 5.96904
LeftFoot  -29.961 -0.892541 -3.17314
LeftToes  -10.5765 2.03064e-006 1.83538e-008
347
root  -22.992 21.6695 -13.8408 -154.235 -0.943741 -179.73
RightUpLeg  -88.9162 -11.9105 6.74978
RightLeg  102.554 0.698325 -3.54484
RightFoot  -28.6247 0.513074 2.57886
RightToes  -16.7306 -0.0638945 -0.150074
Spine  12.2808 2.69478 1.98547
Spine1  20.3077 6.32979 2.9032
HEad  -92.5275 2.71955 12.3209
LeftShoulder1  -1.94126e-019 -3.10601e-018 -2.51263e-017
LeftArm  18.5359 -58.6041 -89.3022
LeftForeArm  32.5261 -16.7438 -2.23188
LeftHand  -0.486184 -1.94933 7.87994
RightShoulder  -4.96962e-017 0 -2.36833e-017
RightArm  -8.25311 54.5273 70.6749
RightForeArm  70.6361 6.88365 1.14162
RightHand  -0.377662 -1.68864 -11.6973
LeftUpLeg  -89.2966 12.1335 -4.05947
LeftLeg  103.533 -0.965473 5.58983
LeftFoot  -27.9789 -0.710237 -2.68876
LeftToes  -11.0796 2.03064e-006 1.83538e-008
348
root  -22.9167 23.0563 -13.969 -154.269 -1.09454 -179.865
RightUpLeg  -85.0229 -12.4917 6.90386
RightLeg  96.7942 0.297251 -3.08327
RightFoot  -26.8776 0.38897 2.19279
RightToes  -17.2136 -0.064331 -0.151423
Spine  11.4259 2.67478 1.72734
Spine1  18.9732 6.46378 2.38503
HEad  -92.5951 3.0994 12.0113
LeftShoulder1  -1.94126e-019 -3.10601e-018 -2.51263e-017
LeftArm  17.7237 -54.4946 -86.4999
LeftForeArm  32.4178 -16.7402 -2.23505
LeftHand  -0.500844 -1.82657 8.24058
RightShoulder  -4.96962e-017 0 -2.36833e-017
RightArm  -9.4921 51.4175 69.9998
RightForeArm  69.7804 7.16241 1.1936
RightHand  -0.352666 -1.96296 -11.7512
LeftUpLeg  -85.4622 12.5635 -4.22571
LeftLeg  97.7514 -0.348099 4.99788
LeftFoot  -25.8892 -0.534188 -2.16224
LeftToes  -12.013 2.03064e-006 1.83538e-008
349
root  -22.8275 24.4572 -14.1584 -154.592 -1.2359 179.988
RightUpLeg  -80.6627 -12.965 6.91207
RightLeg  90.7358 -0.0301552 -2.82685
RightFoot  -24.9458 0.304296 1.93929
RightToes  -17.4253 -0.0647699 -0.152944
Spine  10.5442 2.72438 1.47805
Spine1  17.6123 6.7779 1.82897
HEad  -92.5213 3.5038 11.6457
LeftShoulder1  -1.94126e-019 -3.10601e-018 -2.51263e-017
LeftArm  17.4817 -49.6822 -84.5539
LeftForeArm  31.9441 -16.4239 -2.24374
LeftHand  -0.492225 -1.62053 8.32425
RightShoulder  -4.96962e-017 0 -2.36833e-017
RightArm  -10.592 47.5421 69.6681
RightForeArm  69.1283 7.72247 1.29438
RightHand  -0.353053 -2.01911 -11.9545
LeftUpLeg  -81.1338 13.1187 -4.31941
LeftLeg  91.638 0.160998 4.26775
LeftFoot  -23.6166 -0.373673 -1.62572
LeftToes  -13.1405 2.03064e-006 1.83538e-008
350
root  -22.7336 25.8768 -14.4171 -155.351 -1.50812 179.845
RightUpLeg  -75.5879 -13.4667 6.74608
RightLeg  84.2865 -0.351855 -2.74073
RightFoot  -22.8394 0.244298 1.77294
RightToes  -17.5318 -0.0653661 -0.154631
Spine  9.70539 2.84016 1.30961
Spine1  16.3786 7.16711 1.4508
HEad  -92.9306 3.70637 11.0843
LeftShoulder1  -1.94126e-019 -3.10601e-018 -2.51263e-017
LeftArm  17.5049 -44.3591 -83.58
LeftForeArm  31.6766 -15.665 -2.23716
LeftHand  -0.465686 -1.50829 8.00415
RightShoulder  -4.96962e-017 0 -2.36833e-017
RightArm  -10.9381 42.6771 69.1993
RightForeArm  66.5977 9.08275 1.478
RightHand  -0.354973 -2.01926 -12.0217
LeftUpLeg  -76.0877 13.5886 -4.20621
LeftLeg  85.0829 0.533258 3.46635
LeftFoot  -21.1927 -0.241056 -1.12695
LeftToes  -14.3423 2.03064e-006 1.83538e-008
351
root  -22.6328 27.344 -14.725 -156.164 -1.97629 179.678
RightUpLeg  -70.1057 -14.0485 6.53042
RightLeg  77.1796 -0.721109 -2.73079
RightFoot  -20.3779 0.19085 1.62599
RightToes  -17.6037 -0.0662749 -0.156478
Spine  8.67211 2.99706 1.15872
Spine1  14.8567 7.58238 1.14857
HEad  -93.1862 3.81444 10.3455
LeftShoulder1  -1.94126e-019 -3.10601e-018 -2.51263e-017
LeftArm  17.6647 -38.4282 -83.1291
LeftForeArm  31.5306 -14.6211 -2.21241
LeftHand  -0.433333 -1.38554 7.58448
RightShoulder  -4.96962e-017 0 -2.36833e-017
RightArm  -8.61629 36.4241 68.6922
RightForeArm  60.2444 11.5286 1.50503
RightHand  -0.32247 -2.30603 -11.8736
LeftUpLeg  -70.5902 13.7903 -3.92878
LeftLeg  77.7897 0.770609 2.67487
LeftFoot  -18.4022 -0.13737 -0.686514
LeftToes  -15.7812 2.03064e-006 1.83538e-008
352
root  -22.5276 28.8321 -15.1118 -157.188 -2.67033 179.497
RightUpLeg  -64.0025 -14.674 6.18042
RightLeg  69.4286 -1.22017 -2.87242
RightFoot  -17.5825 0.147867 1.52235
RightToes  -17.5314 -0.0676512 -0.158478
Spine  7.46712 3.14733 1.03909
Spine1  13.0341 7.90397 0.965363
HEad  -92.862 3.67629 9.48364
LeftShoulder1  -1.94126e-019 -3.10601e-018 -2.51263e-017
LeftArm  17.4637 -31.7851 -82.9581
LeftForeArm  31.9835 -13.3814 -2.14569
LeftHand  -0.400506 -1.32347 7.08093
RightShoulder  -4.96962e-017 0 -2.36833e-017
RightArm  -8.85171 29.5128 69.0289
RightForeArm  55.9044 13.2193 1.36151
RightHand  -0.328569 -2.3276 -12.1888
LeftUpLeg  -64.4645 13.7337 -3.47374
LeftLeg  69.7694 0.87674 1.95726
LeftFoot  -15.2705 -0.0660965 -0.331544
LeftToes  -16.9119 2.03064e-006 1.83538e-008
